<mxfile host="app.diagrams.net" agent="Mozilla/5.0 (Windows NT 10.0; Win64; x64) AppleWebKit/537.36 (KHTML, like Gecko) Chrome/137.0.0.0 Safari/537.36" version="27.1.6">
  <diagram name="Page-1" id="0cMMcWLw7Aplk1dmj0hE">
    <mxGraphModel dx="1613" dy="463" grid="1" gridSize="10" guides="1" tooltips="1" connect="1" arrows="1" fold="1" page="1" pageScale="1" pageWidth="827" pageHeight="1169" math="0" shadow="0">
      <root>
        <mxCell id="0" />
        <mxCell id="1" parent="0" />
        <mxCell id="zT1RU000gLgHZvvaXHwn-10" value="" style="edgeStyle=orthogonalEdgeStyle;rounded=0;orthogonalLoop=1;jettySize=auto;html=1;" parent="1" source="zT1RU000gLgHZvvaXHwn-1" target="zT1RU000gLgHZvvaXHwn-9" edge="1">
          <mxGeometry relative="1" as="geometry" />
        </mxCell>
        <mxCell id="zT1RU000gLgHZvvaXHwn-1" value="" style="shape=actor;whiteSpace=wrap;html=1;" parent="1" vertex="1">
          <mxGeometry x="-100" y="254" width="40" height="50" as="geometry" />
        </mxCell>
        <mxCell id="zT1RU000gLgHZvvaXHwn-5" value="AWS Cloud" style="points=[[0,0],[0.25,0],[0.5,0],[0.75,0],[1,0],[1,0.25],[1,0.5],[1,0.75],[1,1],[0.75,1],[0.5,1],[0.25,1],[0,1],[0,0.75],[0,0.5],[0,0.25]];outlineConnect=0;gradientColor=none;html=1;whiteSpace=wrap;fontSize=12;fontStyle=0;container=1;pointerEvents=0;collapsible=0;recursiveResize=0;shape=mxgraph.aws4.group;grIcon=mxgraph.aws4.group_aws_cloud_alt;strokeColor=#232F3E;fillColor=none;verticalAlign=top;align=left;spacingLeft=30;fontColor=#232F3E;dashed=0;" parent="1" vertex="1">
          <mxGeometry x="90" y="80" width="550" height="400" as="geometry" />
        </mxCell>
        <mxCell id="zT1RU000gLgHZvvaXHwn-14" value="Amazon API Gateway" style="sketch=0;outlineConnect=0;fontColor=#232F3E;gradientColor=none;strokeColor=#ffffff;fillColor=#232F3E;dashed=0;verticalLabelPosition=middle;verticalAlign=bottom;align=center;html=1;whiteSpace=wrap;fontSize=10;fontStyle=1;spacing=3;shape=mxgraph.aws4.productIcon;prIcon=mxgraph.aws4.api_gateway;" parent="zT1RU000gLgHZvvaXHwn-5" vertex="1">
          <mxGeometry x="200" y="157" width="50" height="90" as="geometry" />
        </mxCell>
        <mxCell id="zT1RU000gLgHZvvaXHwn-16" value="AWS Lambda" style="sketch=0;outlineConnect=0;fontColor=#232F3E;gradientColor=none;strokeColor=#ffffff;fillColor=#232F3E;dashed=0;verticalLabelPosition=middle;verticalAlign=bottom;align=center;html=1;whiteSpace=wrap;fontSize=10;fontStyle=1;spacing=3;shape=mxgraph.aws4.productIcon;prIcon=mxgraph.aws4.lambda;" parent="zT1RU000gLgHZvvaXHwn-5" vertex="1">
          <mxGeometry x="357" y="160" width="44" height="80" as="geometry" />
        </mxCell>
        <mxCell id="zT1RU000gLgHZvvaXHwn-28" value="" style="endArrow=classic;html=1;rounded=0;" parent="zT1RU000gLgHZvvaXHwn-5" source="zT1RU000gLgHZvvaXHwn-16" edge="1">
          <mxGeometry width="50" height="50" relative="1" as="geometry">
            <mxPoint x="200" y="270" as="sourcePoint" />
            <mxPoint x="470" y="200" as="targetPoint" />
          </mxGeometry>
        </mxCell>
        <mxCell id="zT1RU000gLgHZvvaXHwn-29" value="Read/Write" style="edgeLabel;html=1;align=center;verticalAlign=middle;resizable=0;points=[];" parent="zT1RU000gLgHZvvaXHwn-28" vertex="1" connectable="0">
          <mxGeometry x="-0.0948" y="1" relative="1" as="geometry">
            <mxPoint as="offset" />
          </mxGeometry>
        </mxCell>
        <mxCell id="zT1RU000gLgHZvvaXHwn-30" value="Amazon Cognito" style="sketch=0;outlineConnect=0;fontColor=#232F3E;gradientColor=none;strokeColor=#ffffff;fillColor=#232F3E;dashed=0;verticalLabelPosition=middle;verticalAlign=bottom;align=center;html=1;whiteSpace=wrap;fontSize=10;fontStyle=1;spacing=3;shape=mxgraph.aws4.productIcon;prIcon=mxgraph.aws4.cognito;" parent="zT1RU000gLgHZvvaXHwn-5" vertex="1">
          <mxGeometry x="80" y="278" width="45" height="84" as="geometry" />
        </mxCell>
        <mxCell id="yA13yzxowqRyW3dWScZo-4" value="" style="edgeStyle=orthogonalEdgeStyle;rounded=0;orthogonalLoop=1;jettySize=auto;html=1;" parent="zT1RU000gLgHZvvaXHwn-5" source="yA13yzxowqRyW3dWScZo-13" target="zT1RU000gLgHZvvaXHwn-14" edge="1">
          <mxGeometry relative="1" as="geometry">
            <mxPoint x="125" y="202.5" as="sourcePoint" />
          </mxGeometry>
        </mxCell>
        <mxCell id="zT1RU000gLgHZvvaXHwn-24" value="" style="endArrow=classic;html=1;rounded=0;" parent="zT1RU000gLgHZvvaXHwn-5" source="zT1RU000gLgHZvvaXHwn-14" target="zT1RU000gLgHZvvaXHwn-16" edge="1">
          <mxGeometry relative="1" as="geometry">
            <mxPoint x="400" y="200" as="sourcePoint" />
            <mxPoint x="310" y="200" as="targetPoint" />
          </mxGeometry>
        </mxCell>
        <mxCell id="zT1RU000gLgHZvvaXHwn-25" value="CRUD operations" style="edgeLabel;resizable=0;html=1;;align=center;verticalAlign=middle;" parent="zT1RU000gLgHZvvaXHwn-24" connectable="0" vertex="1">
          <mxGeometry relative="1" as="geometry" />
        </mxCell>
        <mxCell id="yA13yzxowqRyW3dWScZo-12" value="&lt;b&gt;UI Application&lt;/b&gt;" style="text;html=1;align=center;verticalAlign=middle;resizable=0;points=[];autosize=1;strokeColor=none;fillColor=none;" parent="zT1RU000gLgHZvvaXHwn-5" vertex="1">
          <mxGeometry x="30" y="131" width="100" height="30" as="geometry" />
        </mxCell>
        <mxCell id="yA13yzxowqRyW3dWScZo-13" value="Amazon S3" style="sketch=0;outlineConnect=0;fontColor=#232F3E;gradientColor=none;strokeColor=#ffffff;fillColor=#232F3E;dashed=0;verticalLabelPosition=middle;verticalAlign=bottom;align=center;html=1;whiteSpace=wrap;fontSize=10;fontStyle=1;spacing=3;shape=mxgraph.aws4.productIcon;prIcon=mxgraph.aws4.s3;" parent="zT1RU000gLgHZvvaXHwn-5" vertex="1">
          <mxGeometry x="109" y="157" width="45" height="90" as="geometry" />
        </mxCell>
        <mxCell id="yA13yzxowqRyW3dWScZo-18" value="" style="endArrow=classic;startArrow=classic;html=1;rounded=0;" parent="zT1RU000gLgHZvvaXHwn-5" edge="1">
          <mxGeometry width="50" height="50" relative="1" as="geometry">
            <mxPoint x="127" y="320.6170212765958" as="sourcePoint" />
            <mxPoint x="225" y="246" as="targetPoint" />
            <Array as="points">
              <mxPoint x="225" y="319" />
            </Array>
          </mxGeometry>
        </mxCell>
        <mxCell id="zre3zxtUQhbtCyENEeK5-4" value="Authorization" style="edgeLabel;html=1;align=center;verticalAlign=middle;resizable=0;points=[];" vertex="1" connectable="0" parent="yA13yzxowqRyW3dWScZo-18">
          <mxGeometry x="-0.1408" y="-3" relative="1" as="geometry">
            <mxPoint as="offset" />
          </mxGeometry>
        </mxCell>
        <mxCell id="ZGiQsiWsjtxIlf6sv6jb-1" value="Amazon DynamoDB" style="sketch=0;outlineConnect=0;fontColor=#232F3E;gradientColor=none;strokeColor=#ffffff;fillColor=#232F3E;dashed=0;verticalLabelPosition=middle;verticalAlign=bottom;align=center;html=1;whiteSpace=wrap;fontSize=10;fontStyle=1;spacing=3;shape=mxgraph.aws4.productIcon;prIcon=mxgraph.aws4.dynamodb;" parent="zT1RU000gLgHZvvaXHwn-5" vertex="1">
          <mxGeometry x="470" y="155" width="50" height="90" as="geometry" />
        </mxCell>
        <mxCell id="lTiWwb79wjlR_MQRdirQ-2" value="" style="edgeStyle=orthogonalEdgeStyle;rounded=0;orthogonalLoop=1;jettySize=auto;html=1;" parent="zT1RU000gLgHZvvaXHwn-5" source="lTiWwb79wjlR_MQRdirQ-1" target="yA13yzxowqRyW3dWScZo-13" edge="1">
          <mxGeometry relative="1" as="geometry" />
        </mxCell>
        <mxCell id="lTiWwb79wjlR_MQRdirQ-1" value="Amazon Cloudfront" style="sketch=0;outlineConnect=0;fontColor=#232F3E;gradientColor=none;strokeColor=#ffffff;fillColor=#232F3E;dashed=0;verticalLabelPosition=middle;verticalAlign=bottom;align=center;html=1;whiteSpace=wrap;fontSize=10;fontStyle=1;spacing=3;shape=mxgraph.aws4.productIcon;prIcon=mxgraph.aws4.cloudfront;" parent="zT1RU000gLgHZvvaXHwn-5" vertex="1">
          <mxGeometry x="30" y="161" width="40" height="82" as="geometry" />
        </mxCell>
        <mxCell id="zre3zxtUQhbtCyENEeK5-1" value="Amazon Polly" style="sketch=0;outlineConnect=0;fontColor=#232F3E;gradientColor=none;strokeColor=#ffffff;fillColor=#232F3E;dashed=0;verticalLabelPosition=middle;verticalAlign=bottom;align=center;html=1;whiteSpace=wrap;fontSize=10;fontStyle=1;spacing=3;shape=mxgraph.aws4.productIcon;prIcon=mxgraph.aws4.polly;" vertex="1" parent="zT1RU000gLgHZvvaXHwn-5">
          <mxGeometry x="170" y="45" width="40" height="70" as="geometry" />
        </mxCell>
        <mxCell id="zre3zxtUQhbtCyENEeK5-2" value="" style="endArrow=classic;html=1;rounded=0;" edge="1" parent="zT1RU000gLgHZvvaXHwn-5" source="yA13yzxowqRyW3dWScZo-13" target="zre3zxtUQhbtCyENEeK5-1">
          <mxGeometry width="50" height="50" relative="1" as="geometry">
            <mxPoint x="75" y="90" as="sourcePoint" />
            <mxPoint x="125" y="40" as="targetPoint" />
            <Array as="points">
              <mxPoint x="130" y="80" />
            </Array>
          </mxGeometry>
        </mxCell>
        <mxCell id="zT1RU000gLgHZvvaXHwn-9" value="Client" style="sketch=0;outlineConnect=0;fontColor=#232F3E;gradientColor=none;strokeColor=#232F3E;fillColor=#ffffff;dashed=0;verticalLabelPosition=bottom;verticalAlign=top;align=center;html=1;fontSize=12;fontStyle=0;aspect=fixed;shape=mxgraph.aws4.resourceIcon;resIcon=mxgraph.aws4.client;" parent="1" vertex="1">
          <mxGeometry x="-10" y="249" width="60" height="60" as="geometry" />
        </mxCell>
        <mxCell id="zT1RU000gLgHZvvaXHwn-13" value="" style="endArrow=classic;startArrow=classic;html=1;rounded=0;" parent="1" source="zT1RU000gLgHZvvaXHwn-30" edge="1">
          <mxGeometry width="50" height="50" relative="1" as="geometry">
            <mxPoint x="180" y="409.2258064516129" as="sourcePoint" />
            <mxPoint x="20" y="330" as="targetPoint" />
            <Array as="points">
              <mxPoint x="20" y="400" />
            </Array>
          </mxGeometry>
        </mxCell>
        <mxCell id="zT1RU000gLgHZvvaXHwn-32" value="Authentication" style="edgeLabel;html=1;align=center;verticalAlign=middle;resizable=0;points=[];" parent="zT1RU000gLgHZvvaXHwn-13" vertex="1" connectable="0">
          <mxGeometry x="-0.0124" y="1" relative="1" as="geometry">
            <mxPoint x="9" y="-2" as="offset" />
          </mxGeometry>
        </mxCell>
        <mxCell id="yA13yzxowqRyW3dWScZo-14" value="" style="endArrow=classic;html=1;rounded=0;" parent="1" source="zT1RU000gLgHZvvaXHwn-9" edge="1">
          <mxGeometry width="50" height="50" relative="1" as="geometry">
            <mxPoint x="50" y="282" as="sourcePoint" />
            <mxPoint x="120" y="280" as="targetPoint" />
          </mxGeometry>
        </mxCell>
      </root>
    </mxGraphModel>
  </diagram>
</mxfile>
